<?xml version="1.0" encoding="utf-8"?>
<!-- Generator: Adobe Illustrator 22.0.1, SVG Export Plug-In . SVG Version: 6.00 Build 0)  -->
<svg version="1.1" id="Layer_1" xmlns="http://www.w3.org/2000/svg" xmlns:xlink="http://www.w3.org/1999/xlink" x="0px" y="0px"
	 viewBox="0 0 2092 114" style="enable-background:new 0 0 2092 114;" xml:space="preserve">
<style type="text/css">
	.st0{fill:#FFFFFF;}
</style>
<g>
	<path class="st0" d="M60.9,67h4.9c-4.3,1.3-9.2,2-14.8,2h-9.8l-4.2,19.5H12.7L17.3,67h-4.9l5.5-25.7h4.9l4.5-21.1h34.2
		c18.2,0,26.4,7,24.7,21.1h-4.9c-0.1,1.1-0.3,2.2-0.6,3.3C78.1,56.2,71.6,63.6,60.9,67z M42.3,41.2l-1.8,8.2h9.8
		c3.3,0,5.2-1.6,5.9-4.9c0.3-1.4,0.3-2.5-0.2-3.3h4.9c-0.6-1-1.8-1.6-3.6-1.6h-9.8l-0.3,1.6H42.3z"/>
	<path class="st0" d="M135,67h4.9l4.6,21.5h-24.4L115.9,69h-6.3l-4.2,19.5H81.1L85.6,67h-4.9l5.4-25.4h4.9l4.5-21.4h34.2
		c18.3,0,26.5,7.1,24.6,21.4h-4.9c-0.1,1-0.3,2-0.5,3c-2,9.6-6.8,16.3-14.5,20.3L135,67z M110.6,41.5l-1.7,7.9h9.8
		c3.3,0,5.2-1.6,5.9-4.9c0.3-1.2,0.2-2.2,0-3h4.9c-0.5-1.2-1.7-1.9-3.8-1.9h-9.8l-0.4,1.9H110.6z"/>
	<path class="st0" d="M158.8,46.6c6.2-17.6,19.3-26.5,39.3-26.5c20.1,0,29.4,8.8,28.1,26.5h-4.9c-0.2,2.4-0.6,5-1.2,7.7
		c-0.9,4.3-2.1,8.1-3.7,11.6h4.9c-6.7,15.1-19.3,22.6-37.8,22.6c-18.5,0-27.9-7.5-28.2-22.6h-4.9c-0.1-3.5,0.4-7.3,1.3-11.6
		c0.6-2.7,1.3-5.3,2.1-7.7H158.8z M201.3,46.6c-0.4-4.6-2.8-6.9-7.3-6.9s-7.9,2.3-10.3,6.9h-4.9c-1.1,2.1-1.9,4.7-2.6,7.7
		c-1.1,5.3-1,9.2,0.4,11.6h4.9c1.2,2.1,3.3,3.1,6.2,3.1c3,0,5.5-1,7.6-3.1h-4.9c2.4-2.4,4.2-6.3,5.3-11.6c0.7-3.1,0.9-5.6,0.7-7.7
		H201.3z"/>
	<path class="st0" d="M243.6,41.8l-9.5-21.6h29.7l4.6,14.6l11.7-14.6h29.7l-19.7,21.6h-5.4l-11.4,12.5l5.9,13.5h5.4l9.1,20.8H264
		l-4.7-14.6l-11.8,14.6H218l18.9-20.8h-5.4l12.2-13.4l-5.5-12.5H243.6z"/>
	<path class="st0" d="M318,42.3l-7.6-22.2h26.9l4.2,14.6L352,20.1h26.8l-17,22.2h-4.9l-13.4,17.4l-1.5,7h4.9l-4.6,21.8h-24.4
		l4.6-21.8h-4.9l1.5-7l-6-17.4H318z"/>
	<path class="st0" d="M403.8,42.3l4.7-22.2h24.4l9.5,22.2h-4.9l3.5,8.2l1.8-8.2h4.9l4.7-22.2h24.4l-4.7,22.2h-4.9L462,67.2h4.9
		l-4.5,21.3h-24.4l-9.2-21.3h-4.9l-3.9-9.1l-1.9,9.1h4.9l-4.5,21.3H394l4.5-21.3h-4.9l5.3-24.9H403.8z"/>
	<path class="st0" d="M476.6,46.6c6.2-17.6,19.3-26.5,39.3-26.5c20.1,0,29.4,8.8,28.1,26.5h-4.9c-0.2,2.4-0.6,5-1.2,7.7
		c-0.9,4.3-2.1,8.1-3.7,11.6h4.9c-6.7,15.1-19.3,22.6-37.8,22.6c-18.5,0-27.9-7.5-28.2-22.6h-4.9c-0.1-3.5,0.4-7.3,1.3-11.6
		c0.6-2.7,1.3-5.3,2.1-7.7H476.6z M519.1,46.6c-0.4-4.6-2.8-6.9-7.3-6.9s-7.9,2.3-10.3,6.9h-4.9c-1.1,2.1-1.9,4.7-2.6,7.7
		c-1.1,5.3-1,9.2,0.4,11.6h4.9c1.2,2.1,3.3,3.1,6.2,3.1c3,0,5.5-1,7.6-3.1h-4.9c2.4-2.4,4.2-6.3,5.3-11.6c0.7-3.1,0.9-5.6,0.7-7.7
		H519.1z"/>
	<path class="st0" d="M558.2,42.6L555,20.1h24.4l1.7,22.5h-4.9l0.8,11.7l5.9-11.7h4.9l11.2-22.5h24.4l-12.8,22.5h-4.9l-13.6,23.8
		h4.9l-12.6,22.1h-19.5l-3.2-22.1h-4.9l-3.5-23.8H558.2z"/>
	<path class="st0" d="M637.6,67.7h4.9l-4.4,20.8h-24.4l4.4-20.8h-4.9l5.3-24.9h4.9l4.8-22.7h24.4l-4.8,22.7h-4.9L637.6,67.7z"/>
	<path class="st0" d="M666.9,67.5h4.9l-0.3,1.5h34.2l-4.2,19.5H643l4.5-21h-4.9l5.2-24.7h4.9l4.8-22.7h58.6L712,39.7h-34.2l-0.7,3.2
		h-4.9l-0.4,1.7H706l-4.2,19.5h-34.2L666.9,67.5z"/>
	<path class="st0" d="M799.2,65.6h4.9l-4.9,22.9h-24.4l4.9-22.9h-3.2L765,88.5h-24.4L739,65.6h-3.2l-4.9,22.9h-24.4l4.9-22.9h-4.9
		l5.1-23.8h4.9l4.6-21.6h34.2l3.1,21.6h-4.9l1.8,12.5l7.1-12.5h4.9l12.4-21.6h34.2l-4.6,21.6h-4.9L799.2,65.6z M730.9,65.6h3.2
		l-0.8-11.3L730.9,65.6z M771.6,65.6h3.2l2.4-11.3L771.6,65.6z"/>
	<path class="st0" d="M814.2,41l4.4-20.8h34.2c19.5,0,27.9,6.5,25.1,19.5c-0.1,0.5-0.2,0.9-0.3,1.3h-4.9
		c-2.2,8.9-6.4,13.3-12.6,13.3c5.7,0,8.1,3.8,7.2,11.3h4.9c-0.1,1-0.3,2.2-0.6,3.4c-2.8,13-13.9,19.5-33.4,19.5h-34.2l4.9-22.9h-4.9
		l5.2-24.6H814.2z M847.8,65.6h-4.9c-0.3-1-1.8-1.5-4.3-1.5h-9.8l-0.3,1.5h4.9l-0.7,3.4h9.8c3.3,0,5.1-0.8,5.4-2.4
		C847.9,66.2,847.9,65.9,847.8,65.6z M852.9,41c-0.5-0.9-1.9-1.3-4.2-1.3h-9.8l-0.3,1.3h-4.9l-0.8,3.6h9.8c3.3,0,5.1-0.8,5.4-2.4
		c0.1-0.4,0.1-0.8-0.1-1.1H852.9z"/>
	<path class="st0" d="M926.4,67h4.9l4.6,21.5h-24.4L907.3,69H901l-4.2,19.5h-24.4l4.6-21.5h-4.9l5.4-25.4h4.9l4.5-21.4h34.2
		c18.3,0,26.5,7.1,24.6,21.4h-4.9c-0.1,1-0.3,2-0.5,3c-2,9.6-6.8,16.3-14.5,20.3L926.4,67z M902,41.5l-1.7,7.9h9.8
		c3.3,0,5.2-1.6,5.9-4.9c0.3-1.2,0.2-2.2,0-3h4.9c-0.5-1.2-1.7-1.9-3.8-1.9h-9.8l-0.4,1.9H902z"/>
	<path class="st0" d="M964.8,67.5h4.9l-0.3,1.5h34.2l-4.2,19.5h-58.6l4.5-21h-4.9l5.2-24.7h4.9l4.8-22.7h58.6l-4.2,19.5h-34.2
		l-0.7,3.2h-4.9l-0.4,1.7h34.2l-4.2,19.5h-34.2L964.8,67.5z"/>
	<path class="st0" d="M1053.6,65.6h4.9c-0.1,0.2-0.2,0.3-0.2,0.5l-0.6,2.9h39.1l-4.2,19.5h-63.5l4.8-22.4l0.1-0.5h-4.9
		c3.2-14,14.4-21,33.7-21h4.9c3.3,0,5-0.7,5.3-2c0.1-0.4,0.1-0.7,0-1h4.9c-0.3-1.2-1.7-1.9-4.3-1.9h-34.2l4.2-19.5h34.2
		c19.1,0,27.3,7.1,24.7,21.4h-4.9c-0.1,0.3-0.1,0.7-0.2,1c-3.1,14.4-14.4,21.5-33.9,21.5h-4.9C1055.9,64.1,1054.2,64.6,1053.6,65.6z
		"/>
	<path class="st0" d="M1108.9,41.5c6.8-14.3,19.2-21.4,37.3-21.4c18,0,27.4,7.1,28.1,21.4h-3.4c0.2,3.8-0.2,8-1.2,12.8
		c-0.7,3.3-1.6,6.3-2.6,9.1h3.4c-6.4,16.7-19.3,25-38.8,25c-19.5,0-28.9-8.3-28.1-25h-3.4c0.1-2.8,0.5-5.8,1.2-9.1
		c1-4.8,2.4-9,4.2-12.8H1108.9z M1147.4,41.5c-1.2-1.2-3-1.9-5.3-1.9c-2.3,0-4.3,0.6-6.1,1.9h-3.4c-3.2,2.2-5.5,6.5-6.8,12.8
		c-0.8,3.8-1,6.8-0.5,9.1h3.4c0.7,3.7,3.1,5.5,7.1,5.5s7.2-1.8,9.5-5.5h-3.4c1.5-2.3,2.6-5.4,3.4-9.1c1.3-6.3,0.9-10.5-1.3-12.8
		H1147.4z"/>
	<path class="st0" d="M1204.6,67h4.9l-4.6,21.5h-24.4l4.6-21.5h-4.9l4.7-22.4h-9.8l0.6-3h4.9l2.5-11.6c6.5,0,10.5-3.3,11.9-9.8h24.4
		l-4.5,21.4h-4.9L1204.6,67z"/>
	<path class="st0" d="M1273,67h4.9c-3.5,14.4-14.7,21.5-33.9,21.5h-34.2l4.2-19.5h34.2c2.1,0,3.6-0.7,4.7-2h-4.9
		c0.6-0.7,1-1.7,1.2-2.9h-9.8c-19.5,0-27.8-7.2-24.7-21.5c0-0.1,0-0.2,0-0.2h4.9c3.3-14.8,14.6-22.2,34-22.2h4.9
		c19.4,0,27.6,7.4,24.6,22.2h-4.9c0,0.1,0,0.1,0,0.2l-5,23.5L1273,67z M1239.1,42.3c0,0.1,0,0.1,0,0.2c-0.3,1.3,1.2,2,4.4,2h9.8
		c0.2-0.8,0.2-1.6,0.1-2.2h4.9c-0.2-1.8-1.5-2.6-4-2.6h-4.9c-3.1,0-4.9,0.9-5.5,2.6H1239.1z"/>
	<path class="st0" d="M1325.1,42.3l-7.6-22.2h26.9l4.2,14.6l10.5-14.6h26.8l-17,22.2h-4.9l-13.4,17.4l-1.5,7h4.9l-4.6,21.8h-24.4
		l4.6-21.8h-4.9l1.5-7l-6-17.4H1325.1z"/>
	<path class="st0" d="M1493.8,65.6h4.9l-4.9,22.9h-24.4l4.9-22.9h-3.2l-11.4,22.9h-24.4l-1.7-22.9h-3.2l-4.9,22.9H1401l4.9-22.9
		h-4.9l5.1-23.8h4.9l4.6-21.6h34.2l3.1,21.6h-4.9l1.8,12.5l7.1-12.5h4.9l12.4-21.6h34.2l-4.6,21.6h-4.9L1493.8,65.6z M1425.4,65.6
		h3.2l-0.8-11.3L1425.4,65.6z M1466.1,65.6h3.2l2.4-11.3L1466.1,65.6z"/>
	<path class="st0" d="M1521.6,42.6l13.8-22.5h21l3.5,22.5h-4.9l4.1,26.5h4.9l3,19.4h-26.3l-0.4-4.9h-18l-2.6,4.9h-26.3l11.9-19.4
		h-4.9l16.3-26.5H1521.6z M1533.9,64.1l-0.7-9.8l-5.2,9.8H1533.9z"/>
	<path class="st0" d="M1625.8,67h4.9l4.6,21.5h-24.4l-4.2-19.5h-6.3l-4.2,19.5h-24.4l4.6-21.5h-4.9l5.4-25.4h4.9l4.5-21.4h34.2
		c18.3,0,26.5,7.1,24.6,21.4h-4.9c-0.1,1-0.3,2-0.5,3c-2,9.6-6.8,16.3-14.5,20.3L1625.8,67z M1601.4,41.5l-1.7,7.9h9.8
		c3.3,0,5.2-1.6,5.9-4.9c0.3-1.2,0.2-2.2,0-3h4.9c-0.5-1.2-1.7-1.9-3.8-1.9h-9.8l-0.4,1.9H1601.4z"/>
	<path class="st0" d="M1673.2,65.4h4.9l-4.4,3.6h29.3l-4.2,19.5h-58.6l4.2-19.5l4.4-3.6h-4.9l29.5-24.4h4.9l1.6-1.3h-29.3l4.2-19.5
		h58.6l-4.2,19.5l-1.6,1.3h-4.9L1673.2,65.4z"/>
	<path class="st0" d="M1713.1,46.6c6.2-17.6,19.3-26.5,39.3-26.5c20.1,0,29.4,8.8,28.1,26.5h-4.9c-0.2,2.4-0.6,5-1.2,7.7
		c-0.9,4.3-2.1,8.1-3.7,11.6h4.9c-6.7,15.1-19.3,22.6-37.8,22.6c-18.5,0-27.9-7.5-28.2-22.6h-4.9c-0.1-3.5,0.4-7.3,1.3-11.6
		c0.6-2.7,1.3-5.3,2.1-7.7H1713.1z M1755.6,46.6c-0.4-4.6-2.8-6.9-7.3-6.9s-7.9,2.3-10.3,6.9h-4.9c-1.1,2.1-1.9,4.7-2.6,7.7
		c-1.1,5.3-1,9.2,0.4,11.6h4.9c1.2,2.1,3.3,3.1,6.2,3.1c3,0,5.5-1,7.6-3.1h-4.9c2.4-2.4,4.2-6.3,5.3-11.6c0.7-3.1,0.9-5.6,0.7-7.7
		H1755.6z"/>
	<path class="st0" d="M1826.3,65.6h4.9c-0.1,0.2-0.2,0.3-0.2,0.5l-0.6,2.9h39.1l-4.2,19.5h-63.5l4.8-22.4l0.1-0.5h-4.9
		c3.2-14,14.4-21,33.7-21h4.9c3.3,0,5-0.7,5.3-2c0.1-0.4,0.1-0.7,0-1h4.9c-0.3-1.2-1.7-1.9-4.3-1.9h-34.2l4.2-19.5h34.2
		c19.1,0,27.3,7.1,24.7,21.4h-4.9c-0.1,0.3-0.1,0.7-0.2,1c-3.1,14.4-14.4,21.5-33.9,21.5h-4.9C1828.5,64.1,1826.8,64.6,1826.3,65.6z
		"/>
	<path class="st0" d="M1881.6,41.5c6.8-14.3,19.2-21.4,37.3-21.4c18,0,27.4,7.1,28.1,21.4h-3.4c0.2,3.8-0.2,8-1.2,12.8
		c-0.7,3.3-1.6,6.3-2.6,9.1h3.4c-6.4,16.7-19.3,25-38.8,25c-19.5,0-28.9-8.3-28.1-25h-3.4c0.1-2.8,0.5-5.8,1.2-9.1
		c1-4.8,2.4-9,4.2-12.8H1881.6z M1920,41.5c-1.2-1.2-3-1.9-5.3-1.9c-2.3,0-4.3,0.6-6.1,1.9h-3.4c-3.2,2.2-5.5,6.5-6.8,12.8
		c-0.8,3.8-1,6.8-0.5,9.1h3.4c0.7,3.7,3.1,5.5,7.1,5.5s7.2-1.8,9.5-5.5h-3.4c1.5-2.3,2.6-5.4,3.4-9.1c1.3-6.3,0.9-10.5-1.3-12.8
		H1920z"/>
	<path class="st0" d="M1967.9,65.6h4.9c-0.1,0.2-0.2,0.3-0.2,0.5l-0.6,2.9h39.1l-4.2,19.5h-63.5l4.8-22.4l0.1-0.5h-4.9
		c3.2-14,14.4-21,33.7-21h4.9c3.3,0,5-0.7,5.3-2c0.1-0.4,0.1-0.7,0-1h4.9c-0.3-1.2-1.7-1.9-4.3-1.9h-34.2l4.2-19.5h34.2
		c19.1,0,27.3,7.1,24.7,21.4h-4.9c-0.1,0.3-0.1,0.7-0.2,1c-3.1,14.4-14.4,21.5-33.9,21.5h-4.9C1970.1,64.1,1968.4,64.6,1967.9,65.6z
		"/>
	<path class="st0" d="M2023.2,41.5c6.8-14.3,19.2-21.4,37.3-21.4c18,0,27.4,7.1,28.1,21.4h-3.4c0.2,3.8-0.2,8-1.2,12.8
		c-0.7,3.3-1.6,6.3-2.6,9.1h3.4c-6.4,16.7-19.3,25-38.8,25c-19.5,0-28.9-8.3-28.1-25h-3.4c0.1-2.8,0.5-5.8,1.2-9.1
		c1-4.8,2.4-9,4.2-12.8H2023.2z M2061.6,41.5c-1.2-1.2-3-1.9-5.3-1.9c-2.3,0-4.3,0.6-6.1,1.9h-3.4c-3.2,2.2-5.5,6.5-6.8,12.8
		c-0.8,3.8-1,6.8-0.5,9.1h3.4c0.7,3.7,3.1,5.5,7.1,5.5s7.2-1.8,9.5-5.5h-3.4c1.5-2.3,2.6-5.4,3.4-9.1c1.3-6.3,0.9-10.5-1.3-12.8
		H2061.6z"/>
</g>
</svg>
