<?xml version="1.0" encoding="utf-8"?>
<!-- Generator: Adobe Illustrator 22.0.1, SVG Export Plug-In . SVG Version: 6.00 Build 0)  -->
<svg version="1.1" id="Layer_1" xmlns="http://www.w3.org/2000/svg" xmlns:xlink="http://www.w3.org/1999/xlink" x="0px" y="0px"
	 viewBox="0 0 369.5 74.8" style="enable-background:new 0 0 369.5 74.8;" xml:space="preserve">
<style type="text/css">
	.st0{display:none;}
	.st1{display:inline;fill:#722D15;}
	.st2{fill:#FFFFFF;}
</style>
<g id="Layer_7" class="st0">
	<rect x="-134.8" y="-103.9" class="st1" width="1258.4" height="618"/>
</g>
<g id="Layer_1_1_">
	<g>
		<path class="st2" d="M51.5,51.2h4.9c-4.3,1.3-9.2,2-14.8,2h-9.8l-4.2,19.5H3.3l4.6-21.5H3l5.5-25.7h4.9l4.5-21.1h34.2
			c18.2,0,26.4,7,24.7,21.1h-4.9c-0.1,1.1-0.3,2.2-0.6,3.3C68.8,40.3,62.2,47.8,51.5,51.2z M32.9,25.3l-1.8,8.3h9.8
			c3.3,0,5.2-1.6,5.9-4.9c0.3-1.4,0.3-2.5-0.2-3.3h4.9c-0.6-1-1.8-1.6-3.6-1.6h-9.8l-0.3,1.6L32.9,25.3
			C32.9,25.4,32.9,25.3,32.9,25.3z"/>
		<path class="st2" d="M125.6,51.2h4.9l4.6,21.5h-24.4l-4.2-19.5h-6.3l-4.1,19.5H71.7l4.6-21.5h-4.9l5.4-25.4h4.9l4.5-21.4h34.2
			c18.3,0,26.5,7.1,24.6,21.4h-4.9c-0.1,1-0.3,2-0.5,3c-2,9.6-6.8,16.3-14.5,20.3L125.6,51.2z M101.2,25.7l-1.7,7.9h9.8
			c3.3,0,5.2-1.6,5.9-4.9c0.3-1.2,0.2-2.2,0-3h4.9c-0.5-1.2-1.7-1.9-3.8-1.9h-9.8l-0.4,1.9H101.2z"/>
		<path class="st2" d="M149.5,30.8c6.2-17.6,19.3-26.5,39.3-26.5c20.1,0,29.4,8.8,28.1,26.5H212c-0.2,2.4-0.6,5-1.2,7.7
			c-0.9,4.3-2.1,8.1-3.7,11.6h4.9c-6.7,15.1-19.3,22.6-37.8,22.6s-27.9-7.5-28.2-22.6h-4.9c-0.1-3.5,0.4-7.3,1.3-11.6
			c0.6-2.7,1.3-5.3,2.1-7.7C144.5,30.8,149.5,30.8,149.5,30.8z M191.9,30.8c-0.4-4.6-2.8-6.9-7.3-6.9s-7.9,2.3-10.3,6.9h-4.9
			c-1.1,2.1-1.9,4.7-2.6,7.7c-1.1,5.3-1,9.2,0.4,11.6h4.9c1.2,2.1,3.3,3.1,6.2,3.1c3,0,5.5-1,7.6-3.1H181c2.4-2.4,4.2-6.3,5.3-11.6
			c0.7-3.1,0.9-5.6,0.7-7.7C187,30.8,191.9,30.8,191.9,30.8z"/>
		<path class="st2" d="M234.2,26l-9.5-21.6h29.7L259,19l11.7-14.6h29.7L280.7,26h-5.4l-11.4,12.5l5.9,13.5h5.4l9.1,20.8h-29.7
			l-4.7-14.6l-11.8,14.5h-29.5l18.9-20.8h-5.4l12.2-13.4L228.8,26H234.2z"/>
		<path class="st2" d="M308.6,26.5l-7.5-22.1H328l4.2,14.6l10.5-14.6h26.8l-17,22.2h-4.9l-13.5,17.3l-1.5,7h4.9l-4.6,21.8h-24.4
			l4.6-21.8h-4.9l1.5-7l-6-17.4C303.7,26.4,308.6,26.4,308.6,26.5z"/>
	</g>
</g>
</svg>
